<?xml version="1.0" encoding="utf-8"?>
<!-- Generator: Adobe Illustrator 21.0.0, SVG Export Plug-In . SVG Version: 6.00 Build 0)  -->
<svg version="1.1" id="圖層_1" xmlns="http://www.w3.org/2000/svg" xmlns:xlink="http://www.w3.org/1999/xlink" x="0px" y="0px"
	 viewBox="0 0 512 512" style="enable-background:new 0 0 512 512;" xml:space="preserve">
<style type="text/css">
	.st0{fill:#6699CC;}
</style>
<path class="st0" d="M256.7,510.7C115.3,510,2.1,397.6,2,256.3C1.8,114.6,114.7,1.5,256.6,1.4C397.7,1.4,510.9,114.6,511,255.9
	C511.1,396.9,397.8,510,256.7,510.7z M316.2,465.9c7-1.6,13.6-4.6,20.4-7.1c16.7-6.1,32.1-14.9,46.5-25.1
	c13.1-9.3,24.8-20.2,35.7-32.3c12.2-13.6,21.7-28.7,31.2-44c2-3.2,2.2-4.7-2.5-4.7c-32,0.1-64,0.1-96.1,0c-3.3,0-4.5,1.2-5.1,4.4
	c-1.6,9.5-3.2,19.1-5.4,28.5c-5.9,25.3-11.4,50.7-24.1,73.8c-1,1.8-1.1,3.7-1.4,5.6c-0.1,0.4-0.2,0.8-0.4,1.2
	C315.4,466,315.8,465.9,316.2,465.9z M196.8,465.9c0.4,0.1,0.8,0.1,1.2,0.2c-0.1-0.4-0.2-0.8-0.4-1.2c-0.2-2.3-0.9-4.4-1.9-6.5
	c-7.2-14.6-13.2-29.7-17-45.7c-4.3-18.1-9.1-36.1-11.9-54.5c-0.6-4.2-2-5.5-6.3-5.5c-31.3,0.2-62.6,0.1-94,0.1c-6,0-6.2,0.2-3,5.6
	c9.6,16.3,20.1,31.9,32.9,45.9c10.1,11,21.1,21.3,33.4,29.5c10.5,7,20.8,14.5,33,19.1C174.3,457.1,185,462.8,196.8,465.9z
	 M316.2,46.1c-0.4-0.1-0.8-0.1-1.3-0.2c0.1,0.4,0.2,0.8,0.4,1.2c0.2,2.5,1,4.7,2.1,7c6.5,13.4,12.3,27,15.9,41.7
	c4.9,19.8,10.1,39.5,13.1,59.7c0.4,2.8,1.6,3.9,4.5,3.9c32.4-0.1,64.8-0.1,97.1,0c3.2,0,4.1-0.6,2.5-3.8
	c-4.7-9.4-10.7-18.2-16.7-26.7c-10.3-14.5-22.3-27.8-36.3-39.1C382.9,78,367.9,67,350.5,59.5C339.2,54.7,328.2,49.2,316.2,46.1z
	 M196.8,46.1c-12.3,3.2-23.5,9.2-35.2,13.8c-12,4.7-22.2,12-32.4,19.1c-13,9-24.6,20-35.3,32c-12,13.4-21.3,28.5-30.8,43.6
	c-1.9,3-2.4,4.8,2.4,4.8c32-0.1,64.1-0.1,96.1,0c3.3,0,4.6-1.2,5.1-4.4c2.5-17,6.7-33.7,10.7-50.5c4.3-17.9,10.1-35,18.6-51.3
	c1-1.9,1.4-4,1.7-6c0.1-0.4,0.2-0.8,0.4-1.2C197.6,46,197.2,46.1,196.8,46.1z M408.8,195.9c-17.6,0-35.2,0.1-52.8-0.1
	c-4.4-0.1-5.7,0.9-5.2,5.5c1,8.9,1.4,17.9,1.8,26.9c1.1,28,0.8,56-1.9,83.9c-0.3,3.4,0.7,4.2,3.9,4.2c36.1-0.1,72.2-0.1,108.3,0
	c2.8,0,4.3-0.9,4.8-3.6c0.7-4.5,1.2-9,2.2-13.5c7.6-33.1,4.6-66-2-98.9c-0.7-3.5-2.4-4.4-5.8-4.4
	C444.4,195.9,426.6,195.9,408.8,195.9z M104.3,195.9c-17.6,0-35.2,0.1-52.8-0.1c-4.2-0.1-6.2,1.2-6.6,5.3c-0.4,3.6-0.8,7.3-1.6,10.9
	c-7.7,33.3-4.9,66.4,1.7,99.4c0.7,3.5,2.2,4.8,6,4.8c35.6-0.1,71.1-0.2,106.7,0c4.2,0,4.8-1.3,4.5-5.1c-3.2-36.7-3.2-73.5,0-110.2
	c0.3-3.8-0.3-5.2-4.5-5.1C139.9,196,122.1,195.9,104.3,195.9z M256.5,316.1c17.4,0,34.9-0.2,52.3,0.1c5.2,0.1,6.7-1.7,6.7-6.5
	c0.1-11.3,0.3-22.5,0.8-33.8c1.1-24.8-0.8-49.6-0.9-74.4c0-4.2-1.3-5.9-6.1-5.9c-35.2,0.3-70.4,0.3-105.6,0c-4.9,0-6,1.8-6.1,5.9
	c-0.2,11.4-0.4,22.9-0.9,34.3c-1,24.8,0.8,49.6,0.9,74.4c0,4.2,1.3,6,6.1,5.9C221.3,315.9,238.9,316.1,256.5,316.1z M256.4,159.1
	c16.2,0,32.4-0.1,48.6,0.1c4.2,0.1,5.1-1.2,4.4-5.1c-3.1-18.2-7.8-36-12.4-53.8c-3-11.7-8.6-22.6-13.7-33.6
	c-4.5-9.8-10.3-18.5-18.7-25.4c-4.3-3.5-10.1-4.1-14.7-1.1c-8.4,5.4-14.4,13.4-18.3,22c-7.6,16.7-15.6,33.2-19.1,51.6
	c-2.6,13.4-6.3,26.7-8.9,40.1c-0.8,4.1,0.2,5.5,4.6,5.4C224.3,159,240.3,159.1,256.4,159.1z M256.6,352.8c-16,0-32,0.2-48.1-0.1
	c-4.8-0.1-5.6,1.5-4.8,5.8c3.2,18.2,7.8,36,12.5,53.8c3.2,12.2,9.2,23.5,14.5,35c4.6,9.9,10.6,18.4,19.5,24.7
	c4.1,2.9,8.7,2.6,12.9-0.1c8.4-5.4,14.3-13.4,18.3-22c7.5-16.5,15.4-32.9,18.9-51.1c2.6-13.6,6.4-27,9-40.6c0.8-4.1-0.2-5.5-4.6-5.5
	C288.7,352.9,272.6,352.8,256.6,352.8z"/>
</svg>
