<?xml version="1.0" encoding="utf-8"?>
<!-- Generator: Adobe Illustrator 21.0.0, SVG Export Plug-In . SVG Version: 6.00 Build 0)  -->
<svg version="1.1" id="圖層_1" xmlns="http://www.w3.org/2000/svg" xmlns:xlink="http://www.w3.org/1999/xlink" x="0px" y="0px"
	 viewBox="0 0 512 512" style="enable-background:new 0 0 512 512;" xml:space="preserve">
<style type="text/css">
	.st0{fill:#6392C1;}
</style>
<path class="st0" d="M268,420c-54.7,0-97-1.1-139.3-3.2c-17.3-0.9-34.6-2.4-51.7-4.9c-29.6-4.3-49.2-23-54.5-53
	c-7.7-44-8.8-88.4-7.5-133c0.7-23.3,2-46.6,5.5-69.7c1.4-9.2,2.7-18.5,6.5-27.1C37.6,105.3,56.6,93.8,82,91
	c20.5-2.3,41.1-3.9,61.8-4.7c51.6-2.1,103.3-3,154.9-1.9c36.5,0.8,73,1.6,109.3,4.8c8.6,0.8,17.3,1.7,25.8,3.2
	c29.2,5.2,46.8,22.8,52.7,52c4.4,21.8,5.8,43.9,7,66c1.4,26.8,1.4,53.6,0,80.4c-1.3,24.3-2.6,48.6-7.9,72.4
	c-6.1,27.3-25.1,44.6-52.8,48.8c-22.9,3.4-46.1,4.7-69.2,5.7C327.6,419.2,291.7,420.1,268,420z M206.6,251.7
	c0,22.3,0.1,44.6-0.1,66.9c0,3.9,0.5,5.2,4.5,2.8c38.7-22.4,77.5-44.8,116.4-67c3.5-2,3.5-3,0-5c-38.8-22.3-77.6-44.6-116.4-67
	c-4.1-2.4-4.6-1.1-4.5,2.8C206.6,207.4,206.6,229.6,206.6,251.7z"/>
</svg>
