<?xml version="1.0" encoding="utf-8"?>
<!-- Generator: Adobe Illustrator 21.0.0, SVG Export Plug-In . SVG Version: 6.00 Build 0)  -->
<svg version="1.1" id="圖層_1" xmlns="http://www.w3.org/2000/svg" xmlns:xlink="http://www.w3.org/1999/xlink" x="0px" y="0px"
	 viewBox="0 0 512 512" style="enable-background:new 0 0 512 512;" xml:space="preserve">
<style type="text/css">
	.st0{fill:#6392C1;}
</style>
<g>
	<path class="st0" d="M206.4,1c28.7,0,57.3,0.1,86,0.1c25.8,0.7,51.6,1.5,77.4,3c21.8,1.4,43,6,62.2,16.2
		c15.1,8,29.2,17.8,40.4,31.5c9.1,11.1,16.7,22.9,22.9,36c8.4,17.7,11.4,36.3,13.8,55.3c3.4,27.5,2.3,55.2,3,82.8
		c0,19.6,0,39.3,0,58.9c-0.5,23.6-0.1,47.3-1.7,70.9c-0.7,11.2-3.1,22.2-4.3,33.3c-1.7,15.8-8.2,29.8-14.8,43.6
		c-5,10.5-11.8,19.9-19.8,28.7c-5.9,6.6-12.4,12.6-19.4,17.5c-8.5,6-17.6,11.3-27.3,15.8c-17.6,8.3-36,11.3-54.9,12.8
		c-25.4,2.1-50.9,2.4-76.3,3.2c-23.7,0-47.5,0-71.2,0c-20.2-0.7-40.4-1.4-60.6-2.1c-15.5-0.6-31.1-1.6-46.2-5
		c-19.8-4.5-38-13.3-54.2-25.6c-7.1-5.5-14-11.5-19.8-18.7c-8.8-10.7-15.9-22.2-21.9-34.7c-8.6-18-11.6-37-14-56.3
		c-3.2-25.9-2.1-52-2.9-77.9c0-22.8,0-45.7,0-68.5c1-32.8-0.1-65.6,5.8-98.3c2.9-15.9,8.4-30.4,15.2-44.6
		c4.9-10.3,11.6-19.6,19.6-28.2c6.1-6.6,12.7-12.7,19.8-18c9.7-7.3,20.4-13.2,31.9-17.6c7.6-2.8,15.1-6.2,23.1-7.5
		c18.4-2.9,36.9-3.9,55.5-4.9C184.4,2,195.5,2.7,206.4,1z M257.1,470.4c35.6,0.9,71.2-1.7,106.8-2.1c21.9-0.3,42.1-6.8,60.4-19
		c22.2-14.8,34.5-36,41.5-61.2c4.3-15.6,4.5-31.4,5-47.3c1.7-56.7,1.8-113.5,0-170.2c-0.4-11-0.1-22-2-32.9
		c-2.6-15.4-6.8-30.5-14.8-43.8c-10.6-17.7-25.2-31.6-44.8-39.9c-13.5-5.7-27.2-10.3-41.7-10.6c-25.1-0.4-50.2-1.6-75.3-2.2
		C243.6,40,195,42,146.4,43.5c-20.2,0.6-39,7.3-56.1,18.8c-22.1,14.9-34.5,36-41.5,61.2c-4.2,15.2-4.5,30.7-5,46.2
		c-1.8,57.5-1.8,115,0,172.4c0.3,10.6,0.1,21.3,1.9,31.9c2.7,15.6,6.9,30.8,15.1,44.3c10.7,17.7,25.4,31.4,45,39.7
		c13.3,5.6,26.9,10.2,41.2,10.3C183.7,468.6,220.4,471.4,257.1,470.4z"/>
	<path class="st0" d="M131.5,255.7c1.2-69.1,55.5-124.5,125-124.4c69.3,0.1,124.5,55,124.3,124.9c-0.2,69.5-55.3,124.2-124.6,124.1
		C186.8,380.3,132.6,325.1,131.5,255.7z M171.6,255.8c0.8,47.3,37.1,84.5,84.6,84.5c47.3,0,84.3-36.7,84.5-84.2
		c0.2-47.8-37-84.7-84.4-84.7C208.7,171.4,172.5,208.5,171.6,255.8z"/>
	<path class="st0" d="M394.6,92c15.6-2.6,29.8,13.6,29.8,29.2c0,17.8-14.7,30.5-29.8,30.5c-15.9,0-29.7-14.3-29.9-30.4
		C364.5,108.1,377.6,89.5,394.6,92z"/>
</g>
</svg>
