<?xml version="1.0" encoding="utf-8"?>
<!-- Generator: Adobe Illustrator 21.0.0, SVG Export Plug-In . SVG Version: 6.00 Build 0)  -->
<svg version="1.1" id="圖層_1" xmlns="http://www.w3.org/2000/svg" xmlns:xlink="http://www.w3.org/1999/xlink" x="0px" y="0px"
	 viewBox="0 0 512 512" style="enable-background:new 0 0 512 512;" xml:space="preserve">
<style type="text/css">
	.st0{fill:#6392C1;}
</style>
<path class="st0" d="M431.1,256.5c-25.2,0-49.7-0.1-74.1,0.1c-4.1,0-5.6-0.7-5.5-5.2c0.3-18.8,0.1-37.6,0.1-56.3
	c0-12.4,4.4-17.4,16.9-17.9c13.9-0.5,27.9-0.4,41.9-0.2c4.1,0.1,5.5-0.7,5.5-5.2c-0.3-23.3-0.2-46.5,0-69.8c0-3.9-1-4.8-4.8-4.8
	c-19.6,0.2-39.3-0.2-58.9,0.2c-32.4,0.5-58.6,14.1-77.7,40.1c-11.6,15.8-17.6,34-17.8,53.8c-0.2,20.2-0.2,40.3,0,60.5
	c0,3.8-0.9,4.9-4.8,4.8c-17.7-0.2-35.5,0-53.2-0.2c-3.7,0-5.3,0.5-5.2,4.9c0.3,23.4,0.2,46.9,0,70.3c0,3.6,0.8,4.6,4.5,4.6
	c17.9-0.2,35.8,0.1,53.7-0.2c4.2-0.1,5,1.3,5,5.2c-0.1,55-0.1,109.9,0,164.9c0,3.8-0.8,4.9-4.7,4.9c-61.8-0.1-123.7-0.1-185.6-0.1
	c-12.2,0-23.2-3.5-33.7-9.8C12,488.8,2.5,469.9,2.4,446.7C2,319.8,2.2,193,2.2,66.2c0-11.4,3.1-21.9,8.8-31.9
	c12.4-22.3,32.1-32,56.5-32C193.6,2,319.7,2.2,445.8,2.2c12.5,0,23.9,3.4,34.7,9.9c20.7,12.4,30.1,31.2,30.2,54.4
	c0.3,126.6,0.1,253.3,0.2,379.9c0,12.4-3.6,23.5-9.9,34.2c-12.2,20.6-31.1,29.6-53.9,30.1c-30.3,0.7-60.6,0.1-91,0.3
	c-3.6,0-4.5-1-4.5-4.6c0.1-55.3,0.1-110.6,0-165.9c0-3.8,1.2-4.5,4.7-4.4c13.1,0.2,26.2,0,39.3,0.1c2.5,0,3.9-0.5,5-3.1
	c6.5-16.1,14-31.8,19.7-48.1C423.5,275.6,427.6,266.5,431.1,256.5z"/>
</svg>
