<?xml version="1.0" encoding="utf-8"?>
<!-- Generator: Adobe Illustrator 23.0.3, SVG Export Plug-In . SVG Version: 6.00 Build 0)  -->
<svg version="1.1" id="圖層_1" xmlns:svgjs="http://svgjs.com/svgjs"
	 xmlns="http://www.w3.org/2000/svg" xmlns:xlink="http://www.w3.org/1999/xlink" x="0px" y="0px" viewBox="0 0 512 512"
	 style="enable-background:new 0 0 512 512;" xml:space="preserve">
<style type="text/css">
	.st0{fill:#090947;}
</style>
<g>
	<path class="st0" d="M497.7,340.2C507,313.8,512,285.5,512,256s-5-57.8-14.2-84.2c-0.2-0.8-0.5-1.6-0.8-2.3
		C461.4,70.8,366.8,0,256,0S50.6,70.8,15.1,169.5c-0.3,0.7-0.6,1.5-0.8,2.3C5,198.2,0,226.5,0,256s5,57.8,14.2,84.2
		c0.2,0.8,0.5,1.6,0.8,2.3C50.6,441.2,145.2,512,256,512s205.4-70.8,240.9-169.5C497.3,341.8,497.5,341,497.7,340.2z M256,475.3
		c-9.7,0-25.5-17.6-38.6-57.1c-6.3-19-11.4-40.9-15.1-64.7h107.4c-3.7,23.8-8.8,45.7-15.1,64.7C281.5,457.7,265.8,475.3,256,475.3z
		 M197.8,316.9c-1.8-19.6-2.7-40-2.7-60.9s0.9-41.3,2.7-60.9h116.3c1.8,19.6,2.7,40,2.7,60.9s-0.9,41.3-2.7,60.9H197.8z M36.7,256
		c0-21.1,3-41.5,8.6-60.9H161c-1.7,20-2.6,40.4-2.6,60.9s0.9,40.9,2.6,60.9H45.3C39.7,297.5,36.7,277.1,36.7,256z M256,36.7
		c9.7,0,25.5,17.6,38.6,57.1c6.3,19,11.4,40.9,15.1,64.7H202.3c3.7-23.8,8.8-45.7,15.1-64.7C230.5,54.3,246.3,36.7,256,36.7z
		 M351,195.1h115.7c5.6,19.3,8.6,39.8,8.6,60.9c0,21.1-3,41.5-8.6,60.9H351c1.7-20,2.6-40.4,2.6-60.9S352.7,215.1,351,195.1z
		 M452.4,158.4H346.8c-6.5-45-17.7-85.4-33.4-114.1C374.2,60.8,424.7,103,452.4,158.4z M198.7,44.3C183,73,171.8,113.4,165.2,158.4
		H59.6C87.3,103,137.8,60.8,198.7,44.3z M59.6,353.6h105.6c6.5,45,17.7,85.4,33.4,114.1C137.8,451.2,87.3,409,59.6,353.6z
		 M313.3,467.7c15.7-28.7,26.9-69.1,33.4-114.1h105.6C424.7,409,374.2,451.2,313.3,467.7z"/>
</g>
</svg>
