<svg width="44" height="70" xmlns="http://www.w3.org/2000/svg" xmlns:xlink="http://www.w3.org/1999/xlink" overflow="hidden"><defs><clipPath id="clip0"><rect x="618" y="325" width="44" height="70"/></clipPath></defs><g clip-path="url(#clip0)" transform="translate(-618 -325)"><path d="M640 356C634.984 356 630.971 352 630.971 347 630.971 342 634.984 338 640 338 645.016 338 649.029 342 649.029 347 649.029 352 645.016 356 640 356ZM640 326C633.077 326 626.556 329.4 622.643 335.2 618.731 340.9 617.928 348.2 620.436 354.7L629.967 375.7 638.194 392.9C638.495 393.6 639.197 394 640 394 640.803 394 641.505 393.6 641.806 392.9L650.033 375.7 659.564 354.7C662.072 348.2 661.269 340.9 657.357 335.2 653.444 329.4 646.923 326 640 326Z" fill="#F2F2F2" fill-rule="evenodd" fill-opacity="0.8"/></g></svg>