<svg xmlns="http://www.w3.org/2000/svg" viewBox="0 0 482.19 484.68"><defs><style>.a{fill:#e5e5e5;}.b{fill:#b2b2b2;}</style></defs><title>tpic</title><path class="a" d="M482.09.58q0,239.74.1,479.5c0,3.75-.85,4.6-4.6,4.6q-236.49-.17-473,0c-3.75,0-4.59-.85-4.59-4.6Q.17,240.34.09.58C1.82-.34,3.69.11,5.49.11Q241.1.08,476.7.11C478.49.11,480.36-.34,482.09.58Z"/><path class="b" d="M213.68,345.27c-26.49,0-53,.06-79.46,0a102.26,102.26,0,0,1-20.8-1.91c-14.54-3.05-26.58-15.68-20.65-33.83,3.1-9.5,8.83-17.5,13.75-26,16.55-28.47,33.07-57,50.17-85.12,6.08-10,14.82-17.06,27.84-16.15,9.31.64,15.57,6,21.19,12.65s9,14.78,13.11,22.35c4.4,8,9.38,15.71,14.09,23.55,1.91,3.16,3.16,3.7,5.41.24s4.59-6.44,8.12-8.65c8.85-5.54,18.52-4.75,25.88,2.76,6.35,6.46,10.65,14.47,15.44,22,10.69,16.85,21,33.95,31.42,51a49,49,0,0,1,6.16,14.65,16.28,16.28,0,0,1-10.59,19.48,59.22,59.22,0,0,1-19.62,2.91C268,345.34,240.83,345.27,213.68,345.27Z"/><path class="b" d="M340.62,237.42c-25.53-.08-46.74-22.78-46.63-49.9s21.16-48.27,48-48.13c26.31.13,49.08,23.05,48.94,49.25C390.82,215.39,368,237.51,340.62,237.42Z"/></svg>