<?xml version="1.0" encoding="utf-8"?>
<!-- Generator: Adobe Illustrator 23.0.3, SVG Export Plug-In . SVG Version: 6.00 Build 0)  -->
<svg version="1.1" id="Capa_1" xmlns="http://www.w3.org/2000/svg" xmlns:xlink="http://www.w3.org/1999/xlink" x="0px" y="0px"
	 viewBox="0 0 477.9 477.9" style="enable-background:new 0 0 477.9 477.9;" xml:space="preserve">
<style type="text/css">
	.st0{fill:#FFFFFF;}
</style>
<path class="st0" d="M238.9,8.9c-127,0-230,103-230,230s103,230,230,230s230-103,230-230S366,8.9,238.9,8.9z M280.2,145.6
	c-0.1-0.7-0.2-1.4-0.3-2.2c-0.9-5-2.1-9.8-3.8-14.6l-0.4-1.2c-3.6-10-8.7-19.3-15.2-27.7c-0.1-0.1-0.2-0.3-0.3-0.4
	c10.8-6.3,23-9.6,35.5-9.6c39.1,0,70.9,31.6,70.9,70.8c0,27.9-16.3,53.2-41.8,64.7c-1.1,0.5-2.2,1-3.3,1.4
	c-3.5,1.4-7.1,2.5-10.8,3.4c-0.7,0.2-1.4,0.2-2.1,0.4c-4.1,0.8-8.3,1.2-12.5,1.3c-1.9,0-3.8-0.1-5.7-0.3c-0.7,0-1.4,0-2.1-0.1
	c-8.1-0.9-15.9-3.3-23.2-6.8c-0.3-0.1-0.6-0.1-0.9-0.2c-1.4-0.7-2.8-1.3-4.1-2c0.1-0.1,0.2-0.3,0.3-0.4c6.5-8.4,11.6-17.7,15.2-27.7
	l0.4-1.2c1.6-4.8,2.9-9.6,3.8-14.6c0.1-0.7,0.2-1.4,0.3-2.2c0.8-5,1.3-10.1,1.3-15.3C281.5,155.8,281,150.7,280.2,145.6z
	 M181.8,89.9c18.3,0,36,7,49.2,19.7c0.8,0.8,1.6,1.6,2.4,2.4c2.4,2.6,4.7,5.3,6.7,8.2c0.6,0.9,1.2,1.8,1.8,2.7
	c2,3.1,3.7,6.3,5.2,9.6c0.4,0.8,0.6,1.6,0.9,2.4c1.5,3.7,2.7,7.5,3.5,11.4c0.1,0.4,0.1,0.9,0.2,1.3c1.8,8.8,1.8,17.9,0,26.7
	c-0.1,0.4-0.1,0.9-0.2,1.3c-0.8,3.9-2,7.7-3.5,11.4c-0.3,0.8-0.6,1.6-0.9,2.4c-1.5,3.3-3.2,6.5-5.2,9.6c-0.6,0.9-1.1,1.8-1.8,2.7
	c-2,2.9-4.3,5.6-6.7,8.2c-0.8,0.8-1.6,1.6-2.4,2.4c-5.7,5.5-12.4,9.9-19.6,13.2c-1.1,0.5-2.3,1-3.5,1.4c-3.4,1.4-6.9,2.4-10.5,3.3
	c-0.9,0.2-1.8,0.3-2.7,0.5c-3.9,0.7-7.8,1.1-11.7,1.2h-1.6c-3.9-0.1-7.8-0.5-11.7-1.2c-0.9-0.2-1.8-0.3-2.7-0.5
	c-3.6-0.8-7.1-1.9-10.5-3.3c-1.2-0.5-2.3-1-3.5-1.4c-25.4-11.5-41.7-36.7-41.8-64.6C111.1,121.8,142.7,90,181.8,89.9z M68.6,388
	v-28.4c-0.2-48.1,30.1-91,75.5-107c24.4,10.1,51.8,10.1,76.1,0c4.7,1.7,9.4,3.8,13.8,6.1c3,1.5,5.7,3.2,8.5,5
	c1.8,1.1,3.7,2.3,5.5,3.5c2.7,1.9,5.3,4.1,7.9,6.2c1.6,1.4,3.2,2.8,4.8,4.3c2.3,2.2,4.5,4.6,6.7,7c1.5,1.7,3,3.5,4.4,5.3
	c1.9,2.4,3.6,4.8,5.3,7.3c1.4,2.1,2.7,4.3,3.9,6.6c1.4,2.4,2.7,4.9,3.9,7.4c1.2,2.5,2.2,5.3,3.3,8c0.9,2.4,1.8,4.7,2.6,7.1
	c1,3.3,1.7,6.7,2.4,10.1c0.4,2,1,4,1.3,6c0.8,5.6,1.3,11.3,1.3,17V388H68.6z M409.2,388h-85.2v-28.4c0-4.4-0.3-8.8-0.7-13.2
	c-0.1-1.3-0.3-2.5-0.5-3.8c-0.4-3.1-0.8-6.2-1.4-9.3c-0.3-1.3-0.5-2.6-0.8-4c-0.7-3.2-1.5-6.3-2.4-9.4c-0.3-1-0.6-2.1-0.9-3.1
	c-4-12.7-9.7-24.8-17.1-35.9l-0.6-0.8c-2.4-3.6-5-7.1-7.8-10.5l-0.1-0.1c-2.8-3.5-5.9-6.9-9.2-10.2c0.2,0,0.4,0,0.6,0
	c4,0.5,8,0.8,12.1,0.9h0.8c3.7,0,7.5-0.3,11.2-0.7c1.2-0.1,2.3-0.4,3.5-0.5c3-0.5,6-1.1,8.9-1.8c0.8-0.2,1.7-0.4,2.5-0.7
	c3.9-1.1,7.7-2.3,11.4-3.9c45.4,15.9,75.7,58.9,75.5,107L409.2,388L409.2,388z"/>
</svg>
