<svg id="svg" version="1.1" xmlns="http://www.w3.org/2000/svg" xmlns:xlink="http://www.w3.org/1999/xlink" width="400" height="400" viewBox="0, 0, 400,400"><g id="svgg"><path id="path0" d="M199.200 32.400 C 198.883 32.840,198.343 33.200,198.000 33.200 C 197.657 33.200,197.120 33.556,196.806 33.991 C 196.387 34.573,196.154 34.652,195.924 34.291 C 195.703 33.942,195.610 33.993,195.606 34.465 C 195.603 34.830,194.610 36.143,193.400 37.382 C 192.190 38.622,191.200 39.808,191.200 40.018 C 191.200 40.228,190.840 40.400,190.400 40.400 C 189.960 40.400,189.600 40.591,189.600 40.824 C 189.600 41.057,189.420 41.136,189.200 41.000 C 188.980 40.864,188.800 40.954,188.800 41.200 C 188.800 41.446,188.639 41.548,188.442 41.426 C 188.245 41.304,187.981 41.474,187.854 41.802 C 187.728 42.131,187.339 42.400,186.989 42.400 C 186.639 42.400,186.455 42.566,186.581 42.769 C 186.853 43.209,183.062 47.200,182.372 47.200 C 182.108 47.200,180.302 48.820,178.357 50.800 C 176.413 52.780,174.517 54.400,174.144 54.400 C 173.772 54.400,173.577 54.511,173.713 54.646 C 173.848 54.781,173.023 55.769,171.879 56.841 C 170.736 57.913,169.220 59.332,168.511 59.995 C 167.803 60.658,167.030 61.200,166.795 61.200 C 166.559 61.200,165.987 61.554,165.523 61.986 C 165.059 62.419,164.498 62.661,164.278 62.524 C 164.057 62.388,163.988 62.457,164.124 62.678 C 164.464 63.227,162.859 64.884,162.314 64.547 C 162.064 64.393,161.990 64.460,162.140 64.703 C 162.406 65.133,159.560 68.400,158.920 68.400 C 158.731 68.400,158.324 68.750,158.015 69.179 C 157.707 69.607,157.307 69.866,157.127 69.755 C 156.947 69.644,156.800 69.753,156.800 69.999 C 156.800 70.914,151.983 75.200,150.954 75.200 C 150.403 75.200,150.035 75.335,150.134 75.500 C 150.234 75.665,150.078 76.020,149.787 76.288 C 149.371 76.673,149.217 76.673,149.061 76.288 C 148.950 76.013,148.849 76.109,148.832 76.507 C 148.796 77.295,143.878 82.400,143.154 82.400 C 142.602 82.400,141.203 83.943,141.194 84.561 C 141.191 84.803,141.013 84.730,140.800 84.400 C 140.472 83.892,140.411 83.912,140.406 84.529 C 140.401 85.124,139.273 86.765,139.169 86.329 C 139.153 86.258,139.076 85.869,138.999 85.463 C 138.783 84.322,138.507 84.253,137.993 85.214 C 137.670 85.816,137.661 86.010,137.963 85.823 C 138.206 85.672,138.510 85.821,138.637 86.153 C 138.912 86.869,136.190 89.765,135.591 89.394 C 135.373 89.260,135.082 89.441,134.946 89.798 C 134.809 90.154,134.459 90.355,134.169 90.243 C 133.811 90.106,133.719 90.260,133.884 90.720 C 134.018 91.094,133.990 91.276,133.821 91.124 C 133.652 90.972,132.282 92.097,130.776 93.624 C 129.271 95.151,127.760 96.400,127.419 96.400 C 127.079 96.400,126.800 96.599,126.800 96.843 C 126.800 97.086,126.539 97.186,126.220 97.063 C 125.833 96.915,125.715 97.033,125.863 97.420 C 126.003 97.784,125.837 98.000,125.419 98.000 C 125.053 98.000,124.856 98.167,124.982 98.371 C 125.250 98.805,120.665 103.600,119.983 103.600 C 119.729 103.600,119.017 104.140,118.400 104.800 C 117.783 105.460,117.071 106.000,116.816 106.000 C 116.561 106.000,116.436 106.135,116.538 106.300 C 116.640 106.465,116.189 107.050,115.536 107.600 C 114.884 108.150,113.919 109.005,113.393 109.500 C 112.867 109.995,112.158 110.400,111.818 110.400 C 111.478 110.400,111.200 110.601,111.200 110.847 C 111.200 111.103,110.789 111.215,110.235 111.109 C 109.452 110.959,109.298 111.070,109.419 111.697 C 109.582 112.543,109.461 112.719,106.726 115.615 C 105.695 116.707,104.642 117.600,104.386 117.600 C 104.130 117.600,103.399 118.159,102.760 118.842 C 101.712 119.965,101.397 120.025,101.563 119.070 C 101.594 118.889,101.443 118.850,101.227 118.983 C 101.012 119.116,100.932 119.479,101.051 119.788 C 101.306 120.454,97.114 124.800,96.217 124.800 C 95.636 124.800,92.435 127.866,90.400 130.371 C 89.850 131.049,89.124 131.539,88.786 131.461 C 88.444 131.383,87.734 131.910,87.186 132.649 C 86.644 133.380,85.885 133.983,85.500 133.989 C 85.115 133.995,84.800 134.275,84.800 134.611 C 84.800 135.620,81.251 138.907,80.401 138.684 C 79.855 138.542,79.723 138.655,79.899 139.115 C 80.074 139.569,79.962 139.671,79.490 139.490 C 79.011 139.306,78.906 139.410,79.088 139.886 C 79.253 140.316,79.180 140.435,78.868 140.242 C 78.589 140.069,78.400 140.199,78.400 140.564 C 78.400 140.975,78.171 141.093,77.700 140.924 C 77.315 140.786,77.123 140.809,77.273 140.976 C 77.424 141.143,76.974 141.866,76.273 142.582 C 75.573 143.298,74.735 144.270,74.412 144.742 C 74.088 145.214,73.573 145.600,73.267 145.600 C 72.961 145.600,71.103 147.239,69.137 149.242 C 66.446 151.985,65.371 152.833,64.782 152.679 C 64.351 152.567,64.092 152.625,64.205 152.809 C 64.489 153.268,58.142 159.600,57.399 159.600 C 57.069 159.600,56.800 159.780,56.800 160.000 C 56.800 160.220,56.609 160.400,56.376 160.400 C 56.143 160.400,56.081 160.192,56.238 159.938 C 56.416 159.650,56.348 159.585,56.055 159.766 C 55.798 159.925,55.689 160.220,55.813 160.421 C 56.063 160.825,53.461 163.600,52.833 163.600 C 52.617 163.600,52.278 163.310,52.079 162.956 C 51.764 162.393,51.690 162.388,51.487 162.917 C 51.338 163.306,51.545 163.597,52.068 163.734 C 53.152 164.017,50.500 166.800,49.147 166.800 C 48.663 166.800,48.365 166.899,48.486 167.019 C 48.833 167.367,42.104 174.000,41.405 174.000 C 41.058 174.000,40.671 174.270,40.545 174.600 C 40.418 174.930,40.064 175.200,39.757 175.200 C 39.451 175.200,39.200 175.352,39.200 175.539 C 39.200 176.106,37.740 177.600,37.186 177.600 C 36.901 177.600,36.775 177.708,36.907 177.840 C 37.321 178.254,34.468 180.800,33.590 180.800 C 33.053 180.800,32.856 180.968,33.042 181.268 C 33.235 181.580,33.116 181.653,32.686 181.488 C 32.210 181.306,32.106 181.411,32.290 181.890 C 32.478 182.381,32.371 182.475,31.849 182.274 C 31.448 182.120,31.258 182.171,31.397 182.395 C 31.704 182.891,26.610 188.000,25.807 188.000 C 25.473 188.000,25.200 188.161,25.200 188.358 C 25.200 189.106,22.817 191.258,22.311 190.966 C 22.030 190.804,21.922 190.808,22.072 190.974 C 22.627 191.592,18.808 194.895,17.770 194.696 C 17.236 194.594,16.800 194.666,16.800 194.855 C 16.800 195.045,16.987 195.200,17.216 195.200 C 17.456 195.200,17.413 195.436,17.116 195.758 C 16.832 196.065,16.465 196.234,16.300 196.134 C 16.135 196.035,16.000 196.147,16.000 196.384 C 16.000 197.179,10.776 202.077,10.174 201.846 C 9.849 201.720,9.600 201.861,9.600 202.170 C 9.600 202.469,9.330 202.818,9.000 202.945 C 8.670 203.071,8.400 203.371,8.400 203.610 C 8.400 204.484,3.578 208.800,2.601 208.800 C 2.076 208.800,1.564 208.935,1.462 209.100 C 1.360 209.265,14.534 209.400,30.738 209.400 C 54.014 209.400,60.210 209.505,60.250 209.900 C 60.277 210.175,60.323 246.219,60.350 289.997 L 60.400 369.594 109.900 369.697 L 159.400 369.800 159.400 309.800 L 159.400 249.800 199.600 249.796 L 239.800 249.792 200.000 249.999 L 160.200 250.206 199.876 250.303 C 226.001 250.367,239.637 250.263,239.800 250.000 C 241.200 247.735,241.200 247.744,241.200 309.600 L 241.200 369.600 290.400 369.600 L 339.600 369.600 339.600 289.400 L 339.600 209.200 368.900 209.164 C 387.317 209.141,397.754 208.992,397.000 208.761 C 396.340 208.560,395.350 207.841,394.800 207.163 C 392.904 204.829,389.869 201.800,389.528 201.902 C 389.339 201.959,387.583 200.384,385.624 198.402 C 383.665 196.421,381.869 194.800,381.633 194.800 C 381.023 194.800,377.200 190.982,377.200 190.373 C 377.200 190.095,377.091 189.976,376.957 190.109 C 376.577 190.489,375.678 189.463,375.895 188.898 C 376.022 188.566,375.866 188.477,375.445 188.638 C 375.090 188.774,374.800 188.686,374.800 188.443 C 374.800 188.199,374.527 188.000,374.193 188.000 C 373.319 188.000,368.306 182.876,368.644 182.328 C 368.816 182.051,368.744 181.987,368.459 182.164 C 367.965 182.469,366.800 181.540,366.800 180.841 C 366.800 180.612,366.542 180.524,366.226 180.646 C 365.524 180.915,360.471 175.988,360.711 175.268 C 360.801 174.997,360.723 174.802,360.537 174.835 C 359.724 174.979,359.172 174.768,359.400 174.400 C 359.623 174.039,359.093 173.826,358.293 173.955 C 357.832 174.029,353.600 169.689,353.600 169.142 C 353.600 168.881,353.486 168.780,353.347 168.919 C 353.208 169.058,352.596 168.638,351.987 167.986 C 351.378 167.334,350.677 166.800,350.429 166.800 C 349.759 166.800,346.327 163.243,346.588 162.820 C 346.712 162.619,346.602 162.325,346.345 162.166 C 346.052 161.985,345.984 162.050,346.162 162.338 C 346.662 163.147,345.999 162.836,344.916 161.752 L 343.868 160.704 344.834 161.002 C 345.722 161.275,345.703 161.222,344.610 160.350 C 343.956 159.828,343.192 159.453,342.912 159.518 C 342.325 159.652,342.014 159.412,338.759 156.299 C 337.436 155.034,336.463 153.821,336.598 153.604 C 336.737 153.378,336.576 153.311,336.221 153.447 C 335.879 153.578,335.600 153.486,335.600 153.243 C 335.600 152.999,335.326 152.800,334.991 152.800 C 334.279 152.800,329.945 148.589,330.296 148.238 C 330.426 148.107,330.310 148.000,330.038 148.000 C 329.395 148.000,328.364 146.969,328.686 146.648 C 328.822 146.511,328.633 146.400,328.267 146.400 C 327.482 146.400,327.408 145.952,328.080 145.280 C 328.453 144.907,328.453 144.800,328.080 144.800 C 327.816 144.800,327.600 144.980,327.600 145.200 C 327.600 146.053,326.697 145.514,324.583 143.400 C 323.373 142.190,322.207 141.200,321.991 141.200 C 321.776 141.200,321.600 140.900,321.600 140.533 C 321.600 140.167,321.481 139.986,321.336 140.131 C 321.191 140.276,320.820 140.036,320.513 139.597 C 320.206 139.159,319.692 138.800,319.372 138.800 C 318.132 138.800,311.893 132.017,312.451 131.276 C 312.883 130.704,312.875 130.677,312.401 131.100 C 311.734 131.694,310.400 131.765,310.400 131.206 C 310.400 130.571,304.444 124.800,303.788 124.800 C 303.085 124.800,296.349 118.184,296.697 117.836 C 296.827 117.706,296.493 117.600,295.955 117.600 C 295.406 117.600,294.719 117.225,294.388 116.745 C 293.393 115.299,288.465 110.400,288.005 110.400 C 287.524 110.400,286.780 109.762,282.998 106.100 C 281.577 104.725,280.186 103.595,279.907 103.588 C 279.628 103.581,278.950 103.018,278.400 102.336 C 277.850 101.654,276.815 100.492,276.100 99.755 C 275.385 99.018,274.800 98.220,274.800 97.983 C 274.800 97.747,274.653 97.644,274.473 97.755 C 274.293 97.866,273.893 97.607,273.585 97.179 C 273.276 96.750,272.791 96.400,272.506 96.400 C 272.222 96.400,270.831 95.230,269.415 93.800 C 267.999 92.370,266.651 91.200,266.420 91.200 C 266.189 91.200,266.000 90.919,266.000 90.576 C 266.000 90.233,265.820 90.064,265.600 90.200 C 265.380 90.336,265.200 90.257,265.200 90.024 C 265.200 89.791,264.918 89.600,264.574 89.600 C 263.988 89.600,262.084 87.762,258.800 84.029 C 258.030 83.153,257.162 82.429,256.871 82.418 C 256.071 82.391,255.111 81.268,255.436 80.741 C 255.617 80.449,255.549 80.384,255.254 80.567 C 254.966 80.744,253.725 79.760,252.055 78.029 C 250.554 76.473,249.031 75.200,248.671 75.200 C 247.776 75.200,242.023 69.256,242.005 68.313 C 242.002 68.154,241.742 68.124,241.426 68.245 C 240.824 68.476,235.167 63.134,234.686 61.880 C 234.543 61.506,234.054 61.200,233.601 61.200 C 233.148 61.200,232.151 60.615,231.386 59.900 C 230.622 59.185,229.362 58.005,228.588 57.277 C 227.814 56.550,227.286 55.785,227.414 55.577 C 227.542 55.370,227.367 55.200,227.024 55.200 C 226.681 55.200,226.400 55.020,226.400 54.800 C 226.400 54.580,226.119 54.400,225.776 54.400 C 225.432 54.400,223.572 52.780,221.643 50.800 C 219.713 48.820,217.919 47.200,217.657 47.200 C 217.034 47.200,213.583 43.750,213.895 43.439 C 214.026 43.307,213.910 43.200,213.638 43.200 C 213.047 43.200,211.953 42.181,212.238 41.896 C 212.347 41.786,211.979 41.581,211.419 41.440 C 210.858 41.300,210.400 41.008,210.400 40.792 C 210.400 40.577,210.217 40.400,209.994 40.400 C 209.287 40.400,202.812 33.665,203.321 33.458 C 203.584 33.351,203.255 33.249,202.588 33.232 C 201.863 33.213,201.145 32.879,200.800 32.400 C 200.483 31.960,200.123 31.600,200.000 31.600 C 199.877 31.600,199.517 31.960,199.200 32.400 M192.600 36.000 C 192.464 36.220,192.623 36.400,192.953 36.400 C 193.283 36.400,193.664 36.220,193.800 36.000 C 193.936 35.780,193.777 35.600,193.447 35.600 C 193.117 35.600,192.736 35.780,192.600 36.000 M184.971 42.991 C 184.547 43.312,184.380 43.578,184.600 43.581 C 185.194 43.591,186.210 42.877,185.959 42.626 C 185.840 42.506,185.395 42.671,184.971 42.991 M169.515 56.819 C 169.121 57.250,168.993 57.672,169.215 57.809 C 169.427 57.940,169.600 57.846,169.600 57.600 C 169.600 57.354,169.743 57.241,169.917 57.349 C 170.091 57.456,170.260 57.197,170.292 56.772 C 170.361 55.863,170.387 55.861,169.515 56.819 M161.400 64.000 C 161.002 64.440,160.865 64.800,161.095 64.800 C 161.326 64.800,161.622 64.519,161.754 64.175 C 161.889 63.825,162.199 63.676,162.459 63.836 C 162.748 64.015,162.816 63.949,162.638 63.662 C 162.266 63.059,162.247 63.064,161.400 64.000 M145.200 78.357 C 145.200 78.857,146.329 79.238,146.585 78.824 C 146.701 78.637,146.512 78.375,146.165 78.242 C 145.326 77.920,145.200 77.935,145.200 78.357 M75.200 141.400 C 74.856 141.815,74.841 142.000,75.151 142.000 C 75.398 142.000,75.600 141.833,75.600 141.629 C 75.600 141.425,75.915 141.176,76.300 141.076 C 76.891 140.921,76.898 140.886,76.349 140.846 C 75.991 140.821,75.474 141.070,75.200 141.400 M0.480 208.880 C -0.080 209.440,-0.160 210.400,0.353 210.400 C 0.548 210.400,0.793 209.950,0.898 209.400 C 1.118 208.246,1.116 208.244,0.480 208.880 M240.400 309.880 C 240.290 342.704,240.336 369.424,240.501 369.259 C 240.667 369.093,240.757 342.237,240.701 309.579 L 240.600 250.200 240.400 309.880 " stroke="none" fill="#3434fc" fill-rule="evenodd"></path><path id="path1" d="M197.200 31.200 C 196.210 32.276,195.256 33.166,195.080 33.178 C 194.904 33.190,193.139 34.820,191.157 36.800 C 189.175 38.780,187.390 40.400,187.190 40.400 C 186.777 40.400,184.876 42.045,181.760 45.100 C 180.581 46.255,179.492 47.200,179.338 47.200 C 178.838 47.200,174.026 52.293,174.283 52.550 C 174.421 52.688,174.233 52.800,173.867 52.800 C 173.500 52.800,173.200 52.950,173.200 53.132 C 173.200 53.315,172.705 53.720,172.100 54.032 C 170.428 54.895,170.083 55.351,170.212 56.527 C 170.277 57.119,170.166 57.502,169.965 57.378 C 169.764 57.254,169.600 57.354,169.600 57.600 C 169.600 57.846,169.409 57.929,169.176 57.785 C 168.909 57.620,169.019 57.328,169.475 56.994 C 169.873 56.703,170.075 56.341,169.923 56.190 C 169.772 56.038,168.737 56.825,167.624 57.938 C 166.511 59.051,165.600 59.874,165.600 59.767 C 165.600 59.479,163.938 60.974,159.893 64.900 C 157.910 66.825,156.130 68.400,155.938 68.400 C 155.746 68.400,154.075 69.913,152.225 71.763 C 150.376 73.613,148.533 75.235,148.131 75.368 C 147.729 75.500,145.882 77.137,144.026 79.004 C 142.170 80.872,140.507 82.400,140.329 82.400 C 140.151 82.400,138.373 84.020,136.378 86.000 C 134.383 87.980,132.569 89.600,132.347 89.600 C 131.708 89.600,130.789 90.688,130.936 91.270 C 131.009 91.562,130.993 91.665,130.901 91.500 C 130.513 90.806,129.967 91.273,130.199 92.100 C 130.398 92.807,130.362 92.871,130.029 92.400 C 129.675 91.897,129.340 92.077,127.964 93.509 C 127.061 94.450,125.666 95.710,124.864 96.309 C 122.590 98.009,120.367 100.409,122.000 99.400 C 122.220 99.264,122.400 99.363,122.400 99.619 C 122.400 99.876,122.127 99.981,121.792 99.852 C 121.405 99.704,120.446 100.342,119.152 101.610 C 118.034 102.704,116.949 103.600,116.742 103.600 C 116.535 103.600,114.846 105.130,112.989 107.000 C 111.131 108.870,109.458 110.400,109.269 110.400 C 109.081 110.400,107.481 111.812,105.713 113.538 C 103.945 115.264,101.891 117.107,101.149 117.634 C 100.407 118.161,98.526 119.854,96.968 121.396 C 95.410 122.938,93.439 124.740,92.586 125.400 C 91.734 126.060,90.128 127.502,89.018 128.605 C 87.908 129.707,86.370 131.056,85.600 131.601 C 84.830 132.146,82.918 133.854,81.352 135.396 C 79.786 136.938,77.863 138.740,77.078 139.400 C 75.883 140.405,75.761 140.644,76.326 140.872 C 76.945 141.122,76.943 141.146,76.300 141.172 C 75.915 141.187,75.600 141.358,75.600 141.550 C 75.600 141.742,75.060 142.008,74.400 142.140 C 73.634 142.293,73.200 142.625,73.200 143.057 C 73.200 143.429,73.083 143.617,72.941 143.474 C 72.798 143.331,72.393 143.535,72.041 143.926 C 71.688 144.318,70.778 145.073,70.018 145.604 C 68.727 146.507,67.547 147.597,59.060 155.720 C 54.590 159.997,54.587 160.000,54.111 160.000 C 53.879 160.000,52.134 161.530,50.235 163.400 C 48.335 165.270,46.693 166.800,46.587 166.800 C 46.336 166.800,44.149 168.717,42.941 169.996 C 42.423 170.544,42.000 171.309,42.000 171.696 C 42.000 172.133,41.697 172.400,41.200 172.400 C 40.760 172.400,40.400 172.550,40.400 172.732 C 40.400 172.915,39.912 173.320,39.316 173.632 C 38.114 174.262,36.529 175.602,33.443 178.600 C 32.310 179.700,30.757 181.070,29.992 181.645 C 27.292 183.672,25.988 185.103,26.241 185.762 C 26.379 186.121,26.282 186.400,26.019 186.400 C 25.762 186.400,25.680 186.176,25.836 185.900 C 25.992 185.625,25.531 185.985,24.812 186.700 C 24.093 187.415,23.338 188.000,23.134 188.000 C 22.572 188.000,20.729 189.962,20.952 190.322 C 21.059 190.496,20.962 190.900,20.736 191.219 C 20.401 191.693,20.366 191.671,20.550 191.100 C 20.858 190.141,20.542 190.221,19.364 191.400 C 18.814 191.950,18.192 192.400,17.982 192.400 C 17.772 192.400,17.600 192.591,17.600 192.824 C 17.600 193.057,17.780 193.136,18.000 193.000 C 18.220 192.864,18.400 192.957,18.400 193.206 C 18.400 193.455,18.085 193.592,17.700 193.511 C 17.315 193.430,16.730 193.644,16.400 193.986 C 16.070 194.329,15.150 195.092,14.356 195.682 C 11.880 197.522,9.477 200.000,10.167 200.000 C 10.515 200.000,10.800 200.163,10.800 200.363 C 10.800 200.562,10.429 200.628,9.975 200.509 C 9.419 200.364,8.955 200.572,8.552 201.147 C 8.224 201.616,7.782 202.000,7.571 202.000 C 7.064 202.000,1.200 207.873,1.200 208.381 C 1.200 208.598,0.930 208.671,0.600 208.545 C 0.270 208.418,0.000 208.524,0.000 208.781 C 0.000 209.037,0.180 209.136,0.400 209.000 C 0.620 208.864,0.800 209.123,0.800 209.576 L 0.800 210.400 29.800 210.400 L 58.800 210.400 58.800 289.967 C 58.800 333.729,58.909 369.819,59.043 370.167 C 59.262 370.740,64.110 370.800,109.843 370.800 L 160.400 370.800 160.400 310.400 L 160.400 250.000 200.000 250.000 L 239.600 250.000 239.600 310.402 L 239.600 370.803 290.300 370.702 L 341.000 370.600 341.101 290.500 L 341.202 210.400 370.401 210.400 C 387.866 210.400,399.600 210.252,399.600 210.033 C 399.600 209.831,399.709 209.381,399.843 209.033 C 399.979 208.678,399.880 208.400,399.617 208.400 C 399.359 208.400,398.261 207.489,397.176 206.375 C 396.091 205.262,395.059 204.440,394.883 204.549 C 394.706 204.658,394.300 204.562,393.981 204.336 C 393.507 204.001,393.529 203.966,394.100 204.150 C 395.200 204.504,394.910 203.906,393.347 202.600 C 392.558 201.940,390.864 200.388,389.584 199.150 C 388.304 197.913,386.389 196.203,385.329 195.350 C 384.268 194.498,383.340 193.664,383.266 193.498 C 383.192 193.331,382.967 193.297,382.766 193.421 C 382.565 193.545,382.400 193.367,382.400 193.024 C 382.400 192.681,382.228 192.400,382.018 192.400 C 381.808 192.400,381.186 191.950,380.636 191.400 C 380.086 190.850,379.438 190.400,379.195 190.400 C 378.952 190.400,378.864 190.220,379.000 190.000 C 379.136 189.780,379.072 189.600,378.857 189.600 C 378.642 189.600,378.391 189.735,378.299 189.900 C 378.207 190.065,378.191 189.962,378.264 189.670 C 378.490 188.773,377.214 187.749,376.726 188.435 C 376.413 188.875,376.378 188.837,376.564 188.263 C 376.733 187.743,376.567 187.464,376.002 187.316 C 375.561 187.201,375.200 186.952,375.200 186.762 C 375.200 186.297,371.274 182.397,369.356 180.958 C 368.508 180.321,367.037 179.030,366.086 178.089 C 365.136 177.149,364.183 176.487,363.969 176.619 C 363.755 176.751,363.630 176.621,363.690 176.330 C 363.751 176.037,363.489 175.825,363.104 175.855 C 362.722 175.885,362.508 175.749,362.630 175.552 C 362.956 175.025,361.684 173.901,361.141 174.236 C 360.851 174.416,360.784 174.349,360.964 174.059 C 361.130 173.790,360.945 173.481,360.525 173.325 C 359.721 173.026,358.400 171.667,358.400 171.139 C 358.400 170.952,358.199 170.800,357.953 170.800 C 357.704 170.800,357.599 171.153,357.716 171.601 C 357.840 172.073,357.763 172.301,357.528 172.155 C 357.309 172.020,357.217 171.577,357.324 171.171 C 357.537 170.356,356.262 168.844,353.777 166.965 C 352.929 166.324,350.901 164.495,349.269 162.900 C 347.637 161.305,346.144 160.000,345.951 160.000 C 345.758 160.000,345.253 159.685,344.829 159.300 C 343.265 157.881,342.818 157.600,342.117 157.594 C 341.620 157.590,341.551 157.492,341.891 157.276 C 342.228 157.062,341.566 156.217,339.778 154.582 C 338.346 153.272,335.875 150.938,334.287 149.396 C 330.308 145.532,328.935 144.590,328.186 145.212 C 327.407 145.858,327.443 146.400,328.267 146.400 C 328.633 146.400,328.822 146.511,328.686 146.648 C 328.364 146.969,329.395 148.000,330.038 148.000 C 330.310 148.000,330.426 148.107,330.296 148.238 C 329.945 148.589,334.279 152.800,334.991 152.800 C 335.326 152.800,335.600 152.999,335.600 153.243 C 335.600 153.486,335.879 153.578,336.221 153.447 C 336.576 153.311,336.737 153.378,336.598 153.604 C 336.463 153.821,337.436 155.034,338.759 156.299 C 342.014 159.412,342.325 159.652,342.912 159.518 C 343.192 159.453,343.956 159.828,344.610 160.350 C 345.703 161.222,345.722 161.275,344.834 161.002 L 343.868 160.704 344.916 161.752 C 345.999 162.836,346.662 163.147,346.162 162.338 C 345.984 162.050,346.052 161.985,346.345 162.166 C 346.602 162.325,346.712 162.619,346.588 162.820 C 346.327 163.243,349.759 166.800,350.429 166.800 C 350.677 166.800,351.378 167.334,351.987 167.986 C 352.596 168.638,353.208 169.058,353.347 168.919 C 353.486 168.780,353.600 168.881,353.600 169.142 C 353.600 169.689,357.832 174.029,358.293 173.955 C 359.093 173.826,359.623 174.039,359.400 174.400 C 359.172 174.768,359.724 174.979,360.537 174.835 C 360.723 174.802,360.801 174.997,360.711 175.268 C 360.471 175.988,365.524 180.915,366.226 180.646 C 366.542 180.524,366.800 180.612,366.800 180.841 C 366.800 181.540,367.965 182.469,368.459 182.164 C 368.744 181.987,368.816 182.051,368.644 182.328 C 368.306 182.876,373.319 188.000,374.193 188.000 C 374.527 188.000,374.800 188.199,374.800 188.443 C 374.800 188.686,375.090 188.774,375.445 188.638 C 375.866 188.477,376.022 188.566,375.895 188.898 C 375.678 189.463,376.577 190.489,376.957 190.109 C 377.091 189.976,377.200 190.095,377.200 190.373 C 377.200 190.982,381.023 194.800,381.633 194.800 C 381.869 194.800,383.665 196.421,385.624 198.402 C 387.583 200.384,389.339 201.959,389.528 201.902 C 389.869 201.800,392.904 204.829,394.800 207.163 C 395.350 207.841,396.340 208.560,397.000 208.761 C 397.754 208.992,387.317 209.141,368.900 209.164 L 339.600 209.200 339.600 289.400 L 339.600 369.600 290.400 369.600 L 241.200 369.600 241.200 309.605 L 241.200 249.611 200.300 249.705 L 159.400 249.800 159.400 309.800 L 159.400 369.800 109.900 369.697 L 60.400 369.594 60.350 289.997 C 60.323 246.219,60.277 210.175,60.250 209.900 C 60.210 209.505,54.014 209.400,30.738 209.400 C 14.534 209.400,1.360 209.265,1.462 209.100 C 1.564 208.935,2.076 208.800,2.601 208.800 C 3.593 208.800,7.988 204.856,8.507 203.500 C 8.654 203.115,8.961 202.800,9.187 202.800 C 9.414 202.800,9.600 202.536,9.600 202.213 C 9.600 201.866,9.836 201.716,10.174 201.846 C 10.776 202.077,16.000 197.179,16.000 196.384 C 16.000 196.147,16.135 196.035,16.300 196.134 C 16.465 196.234,16.832 196.065,17.116 195.758 C 17.413 195.436,17.456 195.200,17.216 195.200 C 16.987 195.200,16.800 195.045,16.800 194.855 C 16.800 194.666,17.236 194.594,17.770 194.696 C 18.808 194.895,22.627 191.592,22.072 190.974 C 21.922 190.808,22.030 190.804,22.311 190.966 C 22.817 191.258,25.200 189.106,25.200 188.358 C 25.200 188.161,25.473 188.000,25.807 188.000 C 26.610 188.000,31.704 182.891,31.397 182.395 C 31.258 182.171,31.448 182.120,31.849 182.274 C 32.371 182.475,32.478 182.381,32.290 181.890 C 32.106 181.411,32.210 181.306,32.686 181.488 C 33.116 181.653,33.235 181.580,33.042 181.268 C 32.856 180.968,33.053 180.800,33.590 180.800 C 34.468 180.800,37.321 178.254,36.907 177.840 C 36.775 177.708,36.901 177.600,37.186 177.600 C 37.740 177.600,39.200 176.106,39.200 175.539 C 39.200 175.352,39.451 175.200,39.757 175.200 C 40.064 175.200,40.418 174.930,40.545 174.600 C 40.671 174.270,41.058 174.000,41.405 174.000 C 42.104 174.000,48.833 167.367,48.486 167.019 C 48.365 166.899,48.663 166.800,49.147 166.800 C 50.500 166.800,53.152 164.017,52.068 163.734 C 51.545 163.597,51.338 163.306,51.487 162.917 C 51.690 162.388,51.764 162.393,52.079 162.956 C 52.278 163.310,52.617 163.600,52.833 163.600 C 53.461 163.600,56.063 160.825,55.813 160.421 C 55.689 160.220,55.798 159.925,56.055 159.766 C 56.348 159.585,56.416 159.650,56.238 159.938 C 56.081 160.192,56.143 160.400,56.376 160.400 C 56.609 160.400,56.800 160.220,56.800 160.000 C 56.800 159.780,57.069 159.600,57.399 159.600 C 58.142 159.600,64.489 153.268,64.205 152.809 C 64.092 152.625,64.351 152.567,64.782 152.679 C 65.371 152.833,66.446 151.985,69.137 149.242 C 71.103 147.239,72.961 145.600,73.267 145.600 C 73.573 145.600,74.088 145.214,74.412 144.742 C 74.735 144.270,75.573 143.298,76.273 142.582 C 76.974 141.866,77.424 141.143,77.273 140.976 C 77.123 140.809,77.315 140.786,77.700 140.924 C 78.171 141.093,78.400 140.975,78.400 140.564 C 78.400 140.199,78.589 140.069,78.868 140.242 C 79.180 140.435,79.253 140.316,79.088 139.886 C 78.906 139.410,79.011 139.306,79.490 139.490 C 79.962 139.671,80.074 139.569,79.899 139.115 C 79.723 138.655,79.855 138.542,80.401 138.684 C 81.251 138.907,84.800 135.620,84.800 134.611 C 84.800 134.275,85.115 133.995,85.500 133.989 C 85.885 133.983,86.644 133.380,87.186 132.649 C 87.734 131.910,88.444 131.383,88.786 131.461 C 89.124 131.539,89.850 131.049,90.400 130.371 C 92.435 127.866,95.636 124.800,96.217 124.800 C 97.114 124.800,101.306 120.454,101.051 119.788 C 100.932 119.479,101.012 119.116,101.227 118.983 C 101.443 118.850,101.594 118.889,101.563 119.070 C 101.397 120.025,101.712 119.965,102.760 118.842 C 103.399 118.159,104.130 117.600,104.386 117.600 C 104.642 117.600,105.695 116.707,106.726 115.615 C 109.461 112.719,109.582 112.543,109.419 111.697 C 109.298 111.070,109.452 110.959,110.235 111.109 C 110.789 111.215,111.200 111.103,111.200 110.847 C 111.200 110.601,111.478 110.400,111.818 110.400 C 112.158 110.400,112.867 109.995,113.393 109.500 C 113.919 109.005,114.884 108.150,115.536 107.600 C 116.189 107.050,116.640 106.465,116.538 106.300 C 116.436 106.135,116.561 106.000,116.816 106.000 C 117.071 106.000,117.783 105.460,118.400 104.800 C 119.017 104.140,119.729 103.600,119.983 103.600 C 120.665 103.600,125.250 98.805,124.982 98.371 C 124.856 98.167,125.053 98.000,125.419 98.000 C 125.837 98.000,126.003 97.784,125.863 97.420 C 125.715 97.033,125.833 96.915,126.220 97.063 C 126.539 97.186,126.800 97.086,126.800 96.843 C 126.800 96.599,127.079 96.400,127.419 96.400 C 127.760 96.400,129.271 95.151,130.776 93.624 C 132.282 92.097,133.652 90.972,133.821 91.124 C 133.990 91.276,134.018 91.094,133.884 90.720 C 133.719 90.260,133.811 90.106,134.169 90.243 C 134.459 90.355,134.809 90.154,134.946 89.798 C 135.082 89.441,135.373 89.260,135.591 89.394 C 136.190 89.765,138.912 86.869,138.637 86.153 C 138.510 85.821,138.206 85.672,137.963 85.823 C 137.661 86.010,137.670 85.816,137.993 85.214 C 138.507 84.253,138.783 84.322,138.999 85.463 C 139.076 85.869,139.153 86.258,139.169 86.329 C 139.273 86.765,140.401 85.124,140.406 84.529 C 140.411 83.912,140.472 83.892,140.800 84.400 C 141.013 84.730,141.191 84.803,141.194 84.561 C 141.203 83.943,142.602 82.400,143.154 82.400 C 143.878 82.400,148.796 77.295,148.832 76.507 C 148.849 76.109,148.950 76.013,149.061 76.288 C 149.217 76.673,149.371 76.673,149.787 76.288 C 150.078 76.020,150.234 75.665,150.134 75.500 C 150.035 75.335,150.403 75.200,150.954 75.200 C 151.983 75.200,156.800 70.914,156.800 69.999 C 156.800 69.753,156.947 69.644,157.127 69.755 C 157.307 69.866,157.707 69.607,158.015 69.179 C 158.324 68.750,158.731 68.400,158.920 68.400 C 159.560 68.400,162.406 65.133,162.140 64.703 C 161.990 64.460,162.064 64.393,162.314 64.547 C 162.859 64.884,164.464 63.227,164.124 62.678 C 163.988 62.457,164.057 62.388,164.278 62.524 C 164.498 62.661,165.059 62.419,165.523 61.986 C 165.987 61.554,166.559 61.200,166.795 61.200 C 167.030 61.200,167.803 60.658,168.511 59.995 C 169.220 59.332,170.736 57.913,171.879 56.841 C 173.023 55.769,173.848 54.781,173.713 54.646 C 173.577 54.511,173.772 54.400,174.144 54.400 C 174.517 54.400,176.413 52.780,178.357 50.800 C 180.302 48.820,182.108 47.200,182.372 47.200 C 183.062 47.200,186.853 43.209,186.581 42.769 C 186.455 42.566,186.639 42.400,186.989 42.400 C 187.339 42.400,187.728 42.131,187.854 41.802 C 187.981 41.474,188.245 41.304,188.442 41.426 C 188.639 41.548,188.800 41.446,188.800 41.200 C 188.800 40.954,188.980 40.864,189.200 41.000 C 189.420 41.136,189.600 41.057,189.600 40.824 C 189.600 40.591,189.960 40.400,190.400 40.400 C 190.840 40.400,191.200 40.228,191.200 40.018 C 191.200 39.808,192.190 38.622,193.400 37.382 C 194.610 36.143,195.603 34.830,195.606 34.465 C 195.610 33.993,195.703 33.942,195.924 34.291 C 196.154 34.652,196.387 34.573,196.806 33.991 C 197.120 33.556,197.631 33.200,197.941 33.200 C 198.252 33.200,198.842 32.812,199.253 32.339 L 200.000 31.478 200.747 32.339 C 201.169 32.825,201.995 33.214,202.647 33.232 C 203.281 33.249,203.584 33.351,203.321 33.458 C 202.812 33.665,209.287 40.400,209.994 40.400 C 210.217 40.400,210.400 40.577,210.400 40.792 C 210.400 41.008,210.858 41.300,211.419 41.440 C 211.979 41.581,212.347 41.786,212.238 41.896 C 211.953 42.181,213.047 43.200,213.638 43.200 C 213.910 43.200,214.026 43.307,213.895 43.439 C 213.583 43.750,217.034 47.200,217.657 47.200 C 217.919 47.200,219.713 48.820,221.643 50.800 C 223.572 52.780,225.432 54.400,225.776 54.400 C 226.119 54.400,226.400 54.580,226.400 54.800 C 226.400 55.020,226.681 55.200,227.024 55.200 C 227.367 55.200,227.542 55.370,227.414 55.577 C 227.286 55.785,227.814 56.550,228.588 57.277 C 229.362 58.005,230.622 59.185,231.386 59.900 C 232.151 60.615,233.148 61.200,233.601 61.200 C 234.054 61.200,234.543 61.506,234.686 61.880 C 235.167 63.134,240.824 68.476,241.426 68.245 C 241.742 68.124,242.002 68.154,242.005 68.313 C 242.023 69.256,247.776 75.200,248.671 75.200 C 249.031 75.200,250.554 76.473,252.055 78.029 C 253.725 79.760,254.966 80.744,255.254 80.567 C 255.549 80.384,255.617 80.449,255.436 80.741 C 255.111 81.268,256.071 82.391,256.871 82.418 C 257.162 82.429,258.030 83.153,258.800 84.029 C 262.084 87.762,263.988 89.600,264.574 89.600 C 264.918 89.600,265.200 89.791,265.200 90.024 C 265.200 90.257,265.380 90.336,265.600 90.200 C 265.820 90.064,266.000 90.233,266.000 90.576 C 266.000 90.919,266.189 91.200,266.420 91.200 C 266.651 91.200,267.999 92.370,269.415 93.800 C 270.831 95.230,272.222 96.400,272.506 96.400 C 272.791 96.400,273.276 96.750,273.585 97.179 C 273.893 97.607,274.293 97.866,274.473 97.755 C 274.653 97.644,274.800 97.747,274.800 97.983 C 274.800 98.220,275.385 99.018,276.100 99.755 C 276.815 100.492,277.850 101.654,278.400 102.336 C 278.950 103.018,279.628 103.581,279.907 103.588 C 280.186 103.595,281.577 104.725,282.998 106.100 C 286.780 109.762,287.524 110.400,288.005 110.400 C 288.465 110.400,293.393 115.299,294.388 116.745 C 294.719 117.225,295.406 117.600,295.955 117.600 C 296.493 117.600,296.827 117.706,296.697 117.836 C 296.349 118.184,303.085 124.800,303.788 124.800 C 304.444 124.800,310.400 130.571,310.400 131.206 C 310.400 131.758,311.742 131.698,312.320 131.120 C 313.055 130.385,312.892 129.917,312.000 130.200 C 311.541 130.346,311.200 130.272,311.200 130.027 C 311.200 129.792,311.395 129.600,311.633 129.600 C 312.041 129.600,310.730 128.260,307.425 125.300 C 306.626 124.585,305.799 124.000,305.587 124.000 C 305.374 124.000,305.200 123.801,305.200 123.557 C 305.200 123.314,304.936 123.216,304.613 123.340 C 304.290 123.464,303.902 123.365,303.751 123.121 C 303.585 122.852,303.659 122.789,303.938 122.962 C 305.007 123.622,304.238 122.623,301.807 120.193 C 300.381 118.767,299.053 117.600,298.855 117.600 C 298.658 117.600,296.738 115.890,294.590 113.800 C 292.441 111.710,290.483 110.000,290.238 110.000 C 289.993 110.000,289.568 109.640,289.293 109.200 C 288.676 108.212,287.821 108.137,288.162 109.100 C 288.311 109.520,288.101 109.405,287.637 108.811 C 287.211 108.267,286.950 107.681,287.057 107.508 C 287.363 107.012,286.058 105.917,285.541 106.236 C 285.253 106.414,285.184 106.349,285.360 106.065 C 285.658 105.582,283.936 103.600,283.218 103.600 C 282.988 103.600,282.800 103.420,282.800 103.200 C 282.800 102.980,282.596 102.800,282.347 102.800 C 282.098 102.800,281.567 102.423,281.168 101.963 C 280.745 101.476,280.241 101.251,279.959 101.425 C 279.656 101.613,279.580 101.555,279.756 101.271 C 280.024 100.837,276.455 96.920,275.096 96.156 C 274.747 95.960,273.372 94.752,272.039 93.471 C 270.706 92.191,269.435 91.255,269.213 91.392 C 268.968 91.543,268.914 91.370,269.074 90.951 C 269.275 90.429,269.181 90.322,268.690 90.510 C 268.233 90.686,268.107 90.588,268.263 90.180 C 268.401 89.822,268.240 89.600,267.843 89.600 C 267.489 89.600,267.200 89.420,267.200 89.200 C 267.200 88.980,267.012 88.800,266.783 88.800 C 266.553 88.800,264.963 87.382,263.249 85.649 C 259.916 82.281,258.675 81.398,257.892 81.840 C 257.528 82.045,257.515 81.993,257.842 81.636 C 258.175 81.275,257.678 80.583,255.842 78.849 C 252.109 75.324,251.485 74.800,251.013 74.800 C 250.773 74.800,250.324 74.450,250.015 74.021 C 249.707 73.593,249.307 73.334,249.127 73.445 C 248.947 73.556,248.800 73.443,248.800 73.193 C 248.800 72.690,243.694 67.600,243.190 67.600 C 243.016 67.600,241.462 66.202,239.737 64.493 C 235.613 60.408,234.502 59.523,234.257 60.125 C 234.130 60.436,234.052 60.404,234.032 60.032 C 233.994 59.356,228.086 53.600,227.430 53.600 C 227.181 53.600,226.717 53.240,226.400 52.800 C 226.083 52.360,225.458 51.997,225.012 51.994 C 224.444 51.990,224.353 51.891,224.710 51.664 C 225.074 51.433,224.555 50.722,222.887 49.170 C 219.571 46.084,218.821 45.540,218.320 45.850 C 218.044 46.020,217.990 45.940,218.176 45.638 C 218.363 45.336,217.847 44.599,216.800 43.677 C 215.878 42.865,214.475 41.615,213.683 40.900 C 212.892 40.185,212.009 39.600,211.722 39.600 C 211.435 39.600,211.200 39.401,211.200 39.157 C 211.200 38.914,210.910 38.826,210.555 38.962 C 210.087 39.141,209.977 39.038,210.151 38.584 C 210.283 38.240,210.249 38.046,210.076 38.153 C 209.903 38.260,209.500 38.182,209.181 37.980 C 208.677 37.661,208.679 37.611,209.197 37.606 C 209.525 37.603,208.563 36.423,207.060 34.985 C 204.907 32.925,204.143 32.421,203.463 32.611 C 202.826 32.789,202.748 32.750,203.165 32.463 C 203.825 32.007,202.716 30.557,202.031 30.981 C 201.824 31.109,201.525 31.002,201.366 30.745 C 201.185 30.452,201.250 30.384,201.538 30.562 C 202.185 30.961,202.115 30.458,201.429 29.771 C 200.377 28.720,199.079 29.158,197.200 31.200 M193.800 36.000 C 193.664 36.220,193.283 36.400,192.953 36.400 C 192.623 36.400,192.464 36.220,192.600 36.000 C 192.736 35.780,193.117 35.600,193.447 35.600 C 193.777 35.600,193.936 35.780,193.800 36.000 M185.588 43.216 C 184.640 43.815,184.127 43.629,184.971 42.991 C 185.395 42.671,185.840 42.506,185.959 42.626 C 186.079 42.746,185.912 43.011,185.588 43.216 M162.638 63.662 C 162.816 63.949,162.748 64.015,162.459 63.836 C 162.199 63.676,161.889 63.825,161.754 64.175 C 161.622 64.519,161.326 64.800,161.095 64.800 C 160.865 64.800,161.002 64.440,161.400 64.000 C 162.247 63.064,162.266 63.059,162.638 63.662 M146.165 78.242 C 146.512 78.375,146.701 78.637,146.585 78.824 C 146.329 79.238,145.200 78.857,145.200 78.357 C 145.200 77.935,145.326 77.920,146.165 78.242 M312.420 131.376 C 311.886 132.020,318.235 138.800,319.372 138.800 C 319.692 138.800,320.206 139.159,320.513 139.597 C 320.820 140.036,321.191 140.276,321.336 140.131 C 321.481 139.986,321.600 140.167,321.600 140.533 C 321.600 140.900,321.776 141.200,321.991 141.200 C 322.207 141.200,323.373 142.190,324.583 143.400 C 327.029 145.847,327.017 145.840,327.857 145.000 C 328.382 144.475,328.384 144.327,327.876 143.819 C 327.557 143.500,327.184 143.350,327.048 143.486 C 326.911 143.622,326.800 143.433,326.800 143.067 C 326.800 142.700,326.648 142.400,326.462 142.400 C 326.277 142.400,325.210 141.545,324.092 140.500 C 319.754 136.446,319.526 136.279,319.111 136.859 C 318.820 137.266,318.782 137.223,318.956 136.683 C 319.473 135.084,313.420 130.171,312.420 131.376 M240.501 369.259 C 240.336 369.424,240.290 342.704,240.400 309.880 L 240.600 250.200 240.701 309.579 C 240.757 342.237,240.667 369.093,240.501 369.259 " stroke="none" fill="#2c2cfc" fill-rule="evenodd"></path><path id="path2" d="" stroke="none" fill="#3438fc" fill-rule="evenodd"></path><path id="path3" d="" stroke="none" fill="#3438fc" fill-rule="evenodd"></path><path id="path4" d="" stroke="none" fill="#3438fc" fill-rule="evenodd"></path></g></svg>