<svg xmlns="http://www.w3.org/2000/svg" viewBox="0 0 140.76 141"><defs><style>.a{fill:#e5de1c;}</style></defs><title>arrow</title><path class="a" d="M0,70.32c0,18.17-.06,36.35,0,54.52,0,9.38,6.61,16.09,15.89,16.11q54.35.11,108.69,0c9.21,0,15.92-6.48,16-15.61.18-15.45.08-30.89,0-46.33a10.2,10.2,0,0,0-.89-4.12,7.46,7.46,0,0,0-8.28-4.14,7.56,7.56,0,0,0-6.09,7.72c-.1,12.11,0,24.23-.07,36.35,0,7.7-2.91,10.61-10.52,10.61q-44.37,0-88.74,0c-7.94,0-10.55-2.56-10.55-10.38q0-44.55,0-89.1C15.55,18,18,15.59,26,15.58c11.76,0,23.52,0,35.28,0,5.46,0,9-3.41,8.84-8.08C70,3.05,66.53.05,61.42,0Q39.32,0,17.22,0C6.24,0,0,6.19,0,17.21Q0,43.78,0,70.32Z"/><path class="a" d="M114,15.58c-1.58,1.7-2.43,2.67-3.34,3.58L46,84a42.39,42.39,0,0,0-3.89,4.16,7.49,7.49,0,0,0,.48,9.77,7.69,7.69,0,0,0,10.09.88,26,26,0,0,0,3.13-2.91l66.08-65.95c.85-.85,1.79-1.61,3.49-3.13,0,2.4,0,3.67,0,4.94,0,5.11-.09,10.22.08,15.32a7.6,7.6,0,1,0,15.2,0c.13-14.73.06-29.46.1-44.19,0-1.83-.49-2.87-2.61-2.86-14.85.06-29.7,0-44.54.1a7.34,7.34,0,0,0-7.34,7.27,7.57,7.57,0,0,0,6.58,8,23,23,0,0,0,3.9.18C102.19,15.59,107.64,15.58,114,15.58Z"/></svg>